<?xml version="1.0" standalone="no"?>
<!DOCTYPE svg PUBLIC "-//W3C//DTD SVG 20010904//EN"
 "http://www.w3.org/TR/2001/REC-SVG-20010904/DTD/svg10.dtd">
<svg version="1.0" xmlns="http://www.w3.org/2000/svg"
 width="427.000000pt" height="427.000000pt" viewBox="0 0 427.000000 427.000000"
 preserveAspectRatio="xMidYMid meet">
<metadata>
Created by potrace 1.11, written by Peter Selinger 2001-2013
</metadata>
<g transform="translate(0.000000,427.000000) scale(0.100000,-0.100000)"
fill="#000000" stroke="none">
<path d="M1855 3923 c-26 -11 -63 -16 -105 -15 -125 4 -210 -28 -224 -83 -9
-36 -105 -126 -172 -160 -370 -190 -603 -461 -690 -803 -13 -52 -27 -134 -31
-181 -3 -47 -12 -95 -19 -106 -8 -11 -14 -34 -14 -52 l0 -33 -104 69 c-134 88
-208 123 -273 129 -45 4 -55 1 -77 -21 -42 -42 -33 -110 31 -249 l36 -78 -31
-67 c-51 -112 -67 -173 -67 -250 0 -98 17 -120 116 -150 41 -13 98 -25 128
-27 54 -4 55 -5 112 -74 32 -39 77 -85 99 -103 30 -24 40 -39 37 -54 -3 -11
-14 -56 -26 -99 -76 -287 -20 -584 128 -678 43 -27 45 -30 42 -71 -1 -28 8
-70 28 -124 45 -121 117 -275 134 -285 9 -4 609 17 1344 47 1083 45 1333 58
1356 70 16 8 40 15 53 15 19 0 24 5 24 25 0 20 -5 25 -26 25 -21 0 -25 3 -19
18 4 9 19 65 34 124 14 60 31 108 37 108 5 0 31 13 57 29 54 35 76 74 112 198
68 233 28 461 -109 621 l-46 54 67 65 68 66 56 -2 c41 -1 75 6 125 25 38 15
82 31 97 37 48 17 58 52 51 179 -8 139 -30 197 -98 254 -56 46 -59 75 -20 172
18 46 24 76 20 101 -8 53 -27 66 -100 66 -100 0 -193 -52 -326 -183 -92 -90
-121 -111 -234 -172 -70 -39 -130 -70 -132 -70 -2 0 6 21 20 48 37 75 74 183
90 272 18 92 21 283 5 349 -7 32 -6 47 2 58 19 22 13 99 -10 136 -11 17 -34
60 -51 95 -166 350 -481 556 -956 627 -73 11 -116 22 -136 37 -37 26 -110 48
-157 48 -20 0 -54 9 -76 20 -48 24 -124 26 -180 3z"/>
</g>
</svg>
